<svg xmlns="http://www.w3.org/2000/svg" viewBox="0 0 200 200">
<path d="M 146 105 L 145 106 145 107 143 109 143 110 137 116 136 116 134 118 133 118 132 119 132 120 134 120 135 121 136 121 137 122 138 122 139 123 140 123 141 124 142 123 143 123 149 117 149 116 150 115 150 114 149 113 149 111 148 110 148 109 147 108 147 107 146 106 Z" fill="#ffbd00" />
<path d="M 149 78 L 150 79 150 84 151 85 151 90 150 91 150 96 149 97 149 98 150 98 151 97 153 97 154 96 155 96 156 95 157 95 158 94 159 94 159 82 158 81 156 81 155 80 154 80 153 79 151 79 150 78 Z" fill="#ffbd00" />
<path d="M 56 57 L 56 58 64 66 115 66 116 67 119 67 120 68 122 68 123 69 124 69 126 71 127 71 130 74 130 75 132 77 132 78 133 79 133 80 134 81 134 83 135 84 135 92 134 93 134 95 133 96 133 98 131 100 131 101 126 106 125 106 123 108 121 108 120 109 118 109 117 110 115 110 114 109 114 72 70 72 79 81 89 81 90 82 90 136 99 145 100 145 100 82 101 81 103 81 104 82 104 150 105 151 106 151 107 152 107 153 108 153 113 158 114 158 114 134 115 133 118 133 119 132 121 132 121 130 122 129 122 127 123 126 123 125 124 124 124 122 123 122 122 123 115 123 114 122 114 120 115 119 121 119 122 118 125 118 126 117 127 117 128 116 129 116 130 115 131 115 132 114 133 114 136 111 137 111 138 110 138 109 142 105 142 104 143 103 143 102 144 101 144 99 145 98 145 96 146 95 146 81 145 80 145 78 144 77 144 76 143 75 143 73 141 71 141 70 134 63 133 63 131 61 130 61 129 60 128 60 127 59 125 59 124 58 119 58 118 57 Z" fill="#ffbd00" />
<path d="M 140 52 L 139 53 138 53 137 54 136 54 135 55 133 55 132 56 131 56 132 57 133 57 134 58 135 58 145 68 145 69 146 70 147 69 147 67 148 66 148 65 149 64 149 63 150 62 150 60 142 52 Z" fill="#ffbd00" />
<path d="M 42 43 L 49 50 49 51 50 52 123 52 123 50 122 49 122 47 121 46 121 44 120 43 Z" fill="#ffbd00" />

</svg>
